<svg width="22" height="22" viewBox="0 0 22 22" fill="none" xmlns="http://www.w3.org/2000/svg">
<mask id="path-1-outside-1_4681_130484" maskUnits="userSpaceOnUse" x="-1" y="-1" width="24" height="24" fill="black">
<rect fill="white" x="-1" y="-1" width="24" height="24"/>
<path d="M10.9902 21.0371C9.61003 21.0371 8.3112 20.7734 7.09375 20.2461C5.8763 19.7253 4.80208 18.9993 3.87109 18.0684C2.94661 17.1374 2.2207 16.0632 1.69336 14.8457C1.16602 13.6283 0.902344 12.3294 0.902344 10.9492C0.902344 9.56901 1.16602 8.27018 1.69336 7.05273C2.2207 5.83529 2.94661 4.76432 3.87109 3.83984C4.80208 2.90885 5.87305 2.17969 7.08398 1.65234C8.30143 1.125 9.60026 0.861328 10.9805 0.861328C12.3672 0.861328 13.6693 1.125 14.8867 1.65234C16.1042 2.17969 17.1784 2.90885 18.1094 3.83984C19.0404 4.76432 19.7695 5.83529 20.2969 7.05273C20.8242 8.27018 21.0879 9.56901 21.0879 10.9492C21.0879 12.3294 20.8242 13.6283 20.2969 14.8457C19.7695 16.0632 19.0404 17.1374 18.1094 18.0684C17.1784 18.9993 16.1042 19.7253 14.8867 20.2461C13.6693 20.7734 12.3704 21.0371 10.9902 21.0371ZM9.90625 15.7637C10.0885 15.7637 10.2546 15.7214 10.4043 15.6367C10.5605 15.5521 10.6973 15.4251 10.8145 15.2559L15.3848 8.12695C15.4499 8.02279 15.5085 7.91211 15.5605 7.79492C15.6126 7.67122 15.6387 7.55404 15.6387 7.44336C15.6387 7.18945 15.541 6.98438 15.3457 6.82812C15.1569 6.67188 14.9421 6.59375 14.7012 6.59375C14.3822 6.59375 14.1185 6.76302 13.9102 7.10156L9.86719 13.5664L7.99219 11.1836C7.86198 11.0208 7.73503 10.9069 7.61133 10.8418C7.48763 10.7767 7.34766 10.7441 7.19141 10.7441C6.94401 10.7441 6.73242 10.8353 6.55664 11.0176C6.38737 11.1934 6.30273 11.4049 6.30273 11.6523C6.30273 11.776 6.32552 11.8965 6.37109 12.0137C6.41667 12.1309 6.48177 12.2448 6.56641 12.3555L8.95898 15.2656C9.10221 15.4414 9.2487 15.5684 9.39844 15.6465C9.54818 15.7246 9.71745 15.7637 9.90625 15.7637Z"/>
</mask>
<path d="M10.9902 21.0371C9.61003 21.0371 8.3112 20.7734 7.09375 20.2461C5.8763 19.7253 4.80208 18.9993 3.87109 18.0684C2.94661 17.1374 2.2207 16.0632 1.69336 14.8457C1.16602 13.6283 0.902344 12.3294 0.902344 10.9492C0.902344 9.56901 1.16602 8.27018 1.69336 7.05273C2.2207 5.83529 2.94661 4.76432 3.87109 3.83984C4.80208 2.90885 5.87305 2.17969 7.08398 1.65234C8.30143 1.125 9.60026 0.861328 10.9805 0.861328C12.3672 0.861328 13.6693 1.125 14.8867 1.65234C16.1042 2.17969 17.1784 2.90885 18.1094 3.83984C19.0404 4.76432 19.7695 5.83529 20.2969 7.05273C20.8242 8.27018 21.0879 9.56901 21.0879 10.9492C21.0879 12.3294 20.8242 13.6283 20.2969 14.8457C19.7695 16.0632 19.0404 17.1374 18.1094 18.0684C17.1784 18.9993 16.1042 19.7253 14.8867 20.2461C13.6693 20.7734 12.3704 21.0371 10.9902 21.0371ZM9.90625 15.7637C10.0885 15.7637 10.2546 15.7214 10.4043 15.6367C10.5605 15.5521 10.6973 15.4251 10.8145 15.2559L15.3848 8.12695C15.4499 8.02279 15.5085 7.91211 15.5605 7.79492C15.6126 7.67122 15.6387 7.55404 15.6387 7.44336C15.6387 7.18945 15.541 6.98438 15.3457 6.82812C15.1569 6.67188 14.9421 6.59375 14.7012 6.59375C14.3822 6.59375 14.1185 6.76302 13.9102 7.10156L9.86719 13.5664L7.99219 11.1836C7.86198 11.0208 7.73503 10.9069 7.61133 10.8418C7.48763 10.7767 7.34766 10.7441 7.19141 10.7441C6.94401 10.7441 6.73242 10.8353 6.55664 11.0176C6.38737 11.1934 6.30273 11.4049 6.30273 11.6523C6.30273 11.776 6.32552 11.8965 6.37109 12.0137C6.41667 12.1309 6.48177 12.2448 6.56641 12.3555L8.95898 15.2656C9.10221 15.4414 9.2487 15.5684 9.39844 15.6465C9.54818 15.7246 9.71745 15.7637 9.90625 15.7637Z" fill="#0066FF"/>
<path d="M7.09375 20.2461L7.49122 19.3285L7.48708 19.3267L7.09375 20.2461ZM3.87109 18.0684L3.16151 18.773L3.16399 18.7755L3.87109 18.0684ZM1.69336 14.8457L0.775744 15.2432L1.69336 14.8457ZM3.87109 3.83984L3.16399 3.13274L3.87109 3.83984ZM7.08398 1.65234L6.68651 0.734727L6.68472 0.735509L7.08398 1.65234ZM18.1094 3.83984L17.4023 4.54696L17.4048 4.54943L18.1094 3.83984ZM20.2969 7.05273L19.3793 7.4502L20.2969 7.05273ZM14.8867 20.2461L14.4934 19.3267L14.4892 19.3285L14.8867 20.2461ZM10.4043 15.6367L9.92801 14.7574L9.92009 14.7617L9.91224 14.7662L10.4043 15.6367ZM10.8145 15.2559L11.6366 15.8251L11.6467 15.8105L11.6563 15.7956L10.8145 15.2559ZM15.3848 8.12695L16.2267 8.6667L16.2328 8.65695L15.3848 8.12695ZM15.5605 7.79492L16.4744 8.20106L16.4784 8.19206L16.4822 8.18298L15.5605 7.79492ZM15.3457 6.82812L14.7081 7.59852L14.7145 7.60381L14.721 7.60899L15.3457 6.82812ZM13.9102 7.10156L14.758 7.63181L14.7618 7.62566L13.9102 7.10156ZM9.86719 13.5664L9.08132 14.1848L9.96088 15.3026L10.715 14.0966L9.86719 13.5664ZM7.99219 11.1836L8.77808 10.5652L8.77306 10.5589L7.99219 11.1836ZM6.55664 11.0176L5.8368 10.3234L5.83632 10.3239L6.55664 11.0176ZM6.56641 12.3555L5.77205 12.9629L5.78276 12.9769L5.79395 12.9905L6.56641 12.3555ZM8.95898 15.2656L9.73423 14.6339L9.73144 14.6306L8.95898 15.2656ZM10.9902 20.0371C9.74113 20.0371 8.57814 19.7993 7.49122 19.3285L6.69628 21.1637C8.04426 21.7476 9.47893 22.0371 10.9902 22.0371V20.0371ZM7.48708 19.3267C6.3861 18.8557 5.41855 18.2016 4.5782 17.3613L3.16399 18.7755C4.18562 19.7971 5.3665 20.5948 6.70042 21.1655L7.48708 19.3267ZM4.58068 17.3637C3.7451 16.5223 3.08931 15.5525 2.61097 14.4482L0.775744 15.2432C1.3521 16.5738 2.14813 17.7525 3.16151 18.773L4.58068 17.3637ZM2.61097 14.4482C2.14017 13.3613 1.90234 12.1983 1.90234 10.9492H-0.0976562C-0.0976562 12.4605 0.191861 13.8952 0.775744 15.2432L2.61097 14.4482ZM1.90234 10.9492C1.90234 9.70011 2.14017 8.53712 2.61097 7.4502L0.775744 6.65526C0.191861 8.00324 -0.0976562 9.43791 -0.0976562 10.9492H1.90234ZM2.61097 7.4502C3.08903 6.34655 3.7441 5.38105 4.5782 4.54695L3.16399 3.13274C2.14913 4.14759 1.35238 5.32402 0.775744 6.65526L2.61097 7.4502ZM4.5782 4.54695C5.42033 3.70482 6.38678 3.04667 7.48325 2.56918L6.68472 0.735509C5.35931 1.3127 4.18384 2.11289 3.16399 3.13274L4.5782 4.54695ZM7.48145 2.56996C8.56837 2.09915 9.73136 1.86133 10.9805 1.86133V-0.138672C9.46916 -0.138672 8.03449 0.150846 6.68651 0.734728L7.48145 2.56996ZM10.9805 1.86133C12.2368 1.86133 13.4029 2.09941 14.4892 2.56996L15.2842 0.734728C13.9356 0.150587 12.4976 -0.138672 10.9805 -0.138672V1.86133ZM14.4892 2.56996C15.5921 3.04765 16.561 3.7057 17.4023 4.54695L18.8165 3.13274C17.7958 2.11201 16.6163 1.31173 15.2842 0.734728L14.4892 2.56996ZM17.4048 4.54943C18.2445 5.38333 18.9019 6.34804 19.3793 7.4502L21.2145 6.65526C20.6372 5.32253 19.8362 4.14532 18.814 3.13026L17.4048 4.54943ZM19.3793 7.4502C19.8501 8.53712 20.0879 9.70011 20.0879 10.9492H22.0879C22.0879 9.43791 21.7984 8.00324 21.2145 6.65526L19.3793 7.4502ZM20.0879 10.9492C20.0879 12.1983 19.8501 13.3613 19.3793 14.4482L21.2145 15.2432C21.7984 13.8952 22.0879 12.4605 22.0879 10.9492H20.0879ZM19.3793 14.4482C18.9016 15.551 18.2435 16.52 17.4023 17.3613L18.8165 18.7755C19.8372 17.7547 20.6375 16.5753 21.2145 15.2432L19.3793 14.4482ZM17.4023 17.3613C16.5619 18.2016 15.5944 18.8557 14.4934 19.3267L15.28 21.1655C16.614 20.5948 17.7949 19.7971 18.8165 18.7755L17.4023 17.3613ZM14.4892 19.3285C13.4023 19.7993 12.2393 20.0371 10.9902 20.0371V22.0371C12.5015 22.0371 13.9362 21.7476 15.2842 21.1637L14.4892 19.3285ZM9.90625 16.7637C10.2503 16.7637 10.5875 16.6819 10.8964 16.5073L9.91224 14.7662C9.91276 14.7659 9.91404 14.7652 9.9159 14.7644C9.91777 14.7637 9.9194 14.7632 9.92048 14.7629C9.92318 14.7622 9.9194 14.7637 9.90625 14.7637V16.7637ZM10.8806 16.516C11.1952 16.3456 11.4443 16.1029 11.6366 15.8251L9.99226 14.6866C9.97067 14.7178 9.95377 14.7358 9.94357 14.7452C9.93376 14.7543 9.92859 14.7571 9.92801 14.7574L10.8806 16.516ZM11.6563 15.7956L16.2266 8.66666L14.5429 7.58724L9.9726 14.7162L11.6563 15.7956ZM16.2328 8.65695C16.3237 8.51139 16.4041 8.35916 16.4744 8.20106L14.6467 7.38878C14.6128 7.46506 14.576 7.53418 14.5368 7.59695L16.2328 8.65695ZM16.4822 8.18298C16.5753 7.96194 16.6387 7.71245 16.6387 7.44336H14.6387C14.6387 7.39563 14.65 7.38051 14.6389 7.40687L16.4822 8.18298ZM16.6387 7.44336C16.6387 6.89103 16.4071 6.3966 15.9704 6.04726L14.721 7.60899C14.7127 7.60235 14.6851 7.57635 14.6626 7.52905C14.6403 7.48221 14.6387 7.4475 14.6387 7.44336H16.6387ZM15.9833 6.05773C15.6185 5.75589 15.1792 5.59375 14.7012 5.59375V7.59375C14.7071 7.59375 14.7091 7.59421 14.708 7.59402C14.7068 7.59381 14.7043 7.59324 14.7012 7.59214C14.6982 7.59104 14.6967 7.59015 14.6971 7.59037C14.6976 7.59065 14.7013 7.59285 14.7081 7.59852L15.9833 6.05773ZM14.7012 5.59375C13.9467 5.59375 13.3972 6.02701 13.0585 6.57747L14.7618 7.62566C14.8078 7.55092 14.8281 7.547 14.8044 7.56222C14.7921 7.57014 14.7738 7.57925 14.7513 7.58579C14.7289 7.59229 14.7109 7.59375 14.7012 7.59375V5.59375ZM13.0623 6.57133L9.01933 13.0362L10.715 14.0966L14.758 7.63179L13.0623 6.57133ZM10.6531 12.948L8.77806 10.5652L7.20632 11.802L9.08132 14.1848L10.6531 12.948ZM8.77306 10.5589C8.59527 10.3367 8.36728 10.1096 8.07708 9.95688L7.14558 11.7267C7.12059 11.7136 7.11634 11.7068 7.13141 11.7203C7.14622 11.7336 7.17329 11.7608 7.21132 11.8083L8.77306 10.5589ZM8.07708 9.95688C7.79353 9.80764 7.49055 9.74414 7.19141 9.74414V11.7441C7.19986 11.7441 7.19748 11.745 7.18706 11.7426C7.17617 11.74 7.16145 11.7351 7.14558 11.7267L8.07708 9.95688ZM7.19141 9.74414C6.66535 9.74414 6.19604 9.9509 5.8368 10.3234L7.27648 11.7117C7.28144 11.7066 7.27047 11.719 7.24279 11.7309C7.23012 11.7364 7.21786 11.74 7.20735 11.7421C7.19703 11.7441 7.19123 11.7441 7.19141 11.7441V9.74414ZM5.83632 10.3239C5.48487 10.6889 5.30273 11.1502 5.30273 11.6523H7.30273C7.30273 11.6477 7.30311 11.6489 7.30202 11.6549C7.3009 11.6609 7.29866 11.6696 7.29469 11.6795C7.2907 11.6895 7.2861 11.6979 7.28191 11.7043C7.2778 11.7106 7.27545 11.7128 7.27696 11.7112L5.83632 10.3239ZM5.30273 11.6523C5.30273 11.9021 5.34934 12.1453 5.43909 12.3761L7.3031 11.6512C7.30197 11.6483 7.30209 11.648 7.30239 11.6496C7.3027 11.6512 7.30273 11.6524 7.30273 11.6523H5.30273ZM5.43909 12.3761C5.52224 12.5899 5.63633 12.7854 5.77205 12.9629L7.36076 11.748C7.32721 11.7041 7.31109 11.6718 7.3031 11.6512L5.43909 12.3761ZM5.79395 12.9905L8.18653 15.9007L9.73144 14.6306L7.33886 11.7204L5.79395 12.9905ZM8.18375 15.8973C8.38503 16.1443 8.632 16.3745 8.93587 16.5331L9.861 14.7599C9.86539 14.7622 9.8194 14.7385 9.73422 14.634L8.18375 15.8973ZM8.93587 16.5331C9.24456 16.6941 9.57563 16.7637 9.90625 16.7637V14.7637C9.88104 14.7637 9.86738 14.7611 9.86255 14.76C9.85818 14.759 9.85855 14.7586 9.861 14.7599L8.93587 16.5331Z" fill="white" mask="url(#path-1-outside-1_4681_130484)"/>
</svg>
